<?xml version="1.0" encoding="UTF-8" standalone="no"?>
<svg
   xmlns:dc="http://purl.org/dc/elements/1.1/"
   xmlns:cc="http://creativecommons.org/ns#"
   xmlns:rdf="http://www.w3.org/1999/02/22-rdf-syntax-ns#"
   xmlns:svg="http://www.w3.org/2000/svg"
   xmlns="http://www.w3.org/2000/svg"
   xmlns:xlink="http://www.w3.org/1999/xlink"
   xmlns:sodipodi="http://sodipodi.sourceforge.net/DTD/sodipodi-0.dtd"
   xmlns:inkscape="http://www.inkscape.org/namespaces/inkscape"
   width="299.686"
   height="398.547"
   viewBox="0 0 79.292 105.449"
   version="1.1"
   id="svg296"
   sodipodi:docname="Seal of Jombang Regency (1) (1).svg"
   inkscape:version="1.0.1 (3bc2e813f5, 2020-09-07)">
  <metadata
     id="metadata300">
    <rdf:RDF>
      <cc:Work
         rdf:about="">
        <dc:format>image/svg+xml</dc:format>
        <dc:type
           rdf:resource="http://purl.org/dc/dcmitype/StillImage" />
      </cc:Work>
    </rdf:RDF>
  </metadata>
  <sodipodi:namedview
     pagecolor="#ffffff"
     bordercolor="#666666"
     borderopacity="1"
     objecttolerance="10"
     gridtolerance="10"
     guidetolerance="10"
     inkscape:pageopacity="0"
     inkscape:pageshadow="2"
     inkscape:window-width="1366"
     inkscape:window-height="705"
     id="namedview298"
     showgrid="false"
     inkscape:zoom="1.5965598"
     inkscape:cx="151.54577"
     inkscape:cy="205.47951"
     inkscape:window-x="-8"
     inkscape:window-y="-8"
     inkscape:window-maximized="1"
     inkscape:current-layer="svg296" />
  <style
     id="style2"><![CDATA[.g{opacity:.999}.h{fill:#fff}.i{stroke:#005b31}.j{stroke-width:.265}.k{fill:#e0e0e0}.l{stroke:#7e7e7e}.m{fill:#018f50}.n{fill:#00a75d}.o{fill:#ffeba3}.p{fill:#f5c742}.q{fill-rule:evenodd}.r{stroke-linejoin:round}.s{stroke-width:.344}.t{stroke-width:.351}.u{stroke-width:.295}]]></style>
  <defs
     id="defs18">
    <linearGradient
       id="A"
       y1="153.45"
       y2="153.45"
       gradientUnits="userSpaceOnUse">
      <stop
         stop-color="#e2e8eb"
         offset=".505"
         id="stop4" />
      <stop
         stop-color="#fff"
         offset="1"
         id="stop6" />
    </linearGradient>
    <linearGradient
       xlink:href="#A"
       id="B"
       x1="236.169"
       y1="149.642"
       x2="246.071"
       y2="149.642" />
    <linearGradient
       xlink:href="#A"
       id="C"
       x1="842.884"
       y1="594.806"
       x2="958.764"
       y2="594.806" />
    <path
       id="D"
       d="M78.402 134.058c.16 3.064-1.252 3.83-2.383 5.006.704-1.901 1.529-3.491 2.383-5.006z" />
    <path
       id="E"
       d="M263.939 194.056c-.879-.222-1.788-.315-2.635.07-1.029.42-2.212.297-2.697-.801-1.202-.294-.915-1.902-1.609-2.744-.421-.702-1.041-1.472-1.927-1.497-1.142-1.111 1.207-1.469 1.596-2.323.502-.782 1.5-.887 2.337-.738 1.012.116 1.745-.872 2.767-.598 1.225.182 2.521.931 2.788 2.23.32.75 1.163 1.306.979 2.236-.046 1.146.251 2.393-.315 3.433-.166.595-.686 1.816-1.283.732z" />
    <path
       id="F"
       d="M255.703 189.289c1.958 2.953-2.821 4.468.421 7.605 3.218 1.751 4.603-3.216 7.325-3.119-1.144-.335-1.341-1.548-3.645-.806.267-.648.5-1.397.491-2.874-1.041.546-1.913 1.16-2.488 1.893-.309-1.815-1.259-2.132-2.103-2.699z" />
    <path
       id="G"
       d="M262.257 186.626c-1.129-.323-2.191.238-3.175.656-.923-.147-1.817.454-1.506 1.476-.024 1.465 1.562.865 2.344.45.878-.595 1.803.091 1.476 1.098-.507 1.013.418 1.403 1.278 1.335.38.532 1.209.781 1.264-.136-.14-.782.561-1.785-.23-2.375-.821-.381-.281-1.537-.997-2.042-.108-.187-.23-.4-.454-.463z" />
    <path
       id="H"
       d="M256.767 190.97l.793 2.106c.741-.984 1.26-1.188 1.883-1.76-.027.794.062 1.634-.273 2.305 1.157-.405 1.874-.019 2.726.124-1.439.634-2.936 1.698-4.188.966-1.913-1.133-.683-2.491-.942-3.742z" />
    <linearGradient
       xlink:href="#A"
       id="I"
       x1="225.264"
       x2="247.857" />
    <linearGradient
       xlink:href="#A"
       id="J"
       x1="904.495"
       y1="513.892"
       x2="927.074"
       y2="513.892" />
  </defs>
  <g
     class="q"
     id="g24">
    <path
       d="M.511.484v59.979c0 22.839 20.057 41.874 39.135 44.501V.484z"
       fill="#00a870"
       class="g"
       id="path20" />
    <path
       d="M78.781.484v59.979c0 22.839-20.057 41.874-39.135 44.501V.484z"
       fill="#db0000"
       class="g"
       id="path22" />
  </g>
  <path
     d="M.511.484v59.979c0 22.839 20.057 41.874 39.135 44.501 19.078-2.627 39.135-21.662 39.135-44.501V.484H39.646z"
     fill="none"
     stroke="#000"
     stroke-width=".997"
     class="g r"
     id="path26" />
  <path
     d="M39.602 6.55C22.199 6.582 8.105 25.078 8.105 47.882a53.2 53.2 0 0 0 1.489 12.547h60.105c.986-4.057 1.489-8.289 1.489-12.547 0-10.962-3.323-21.475-9.238-29.226S48.011 6.55 39.646 6.55a24.07 24.07 0 0 0-.044 0z"
     fill="#00bfff"
     class="g q"
     id="path28" />
  <g
     transform="translate(-202.655 -113.491)"
     id="g40">
    <path
       d="M237.274 151.765c-3.715 1.023-2.598 3.058-1.246 3.37h6.274 6.274c1.353-.313 2.47-2.347-1.245-3.37h-5.028z"
       fill="url(#I)"
       id="path30" />
    <path
       d="M240.364 139.176l-3.091 12.589h5.028 5.028l-3.091-12.589h-1.937z"
       fill="url(#B)"
       id="path32" />
    <g
       transform="scale(.26458333)"
       id="g38">
      <path
         d="M892.074 586.338c0 7.684-13.59 6.668-13.59 12.918 0 8.937 9.006 4.459 9.006 12.451l-14.68 2.119v15.397h42.975 42.979v-15.397l-14.684-2.119c0-7.992 9.008-3.514 9.008-12.451 0-6.25-13.59-5.234-13.59-12.918h-23.713z"
         fill="url(#C)"
         id="path34" />
      <path
         d="M915.785 501.764c0 8.631-19.417 7.389-7.322 24.256h7.322 7.322c12.094-16.866-7.322-15.625-7.322-24.256z"
         fill="url(#J)"
         id="path36" />
    </g>
  </g>
  <path
     d="M25.346 25.776v1.256l1.782 3.668H23.81v1.256l3.219 3.404h-4.672v1.256l3.482 3.317h-4.908v1.256l4.313 4.008h-5.955v1.256l4.373 4.276H8.985c.11 3.717.603 7.398 1.465 10.943h18.682V25.775h-.249zm26.528 0v35.897h18.681c.862-3.545 1.355-7.226 1.465-10.943H57.342l4.373-4.276v-1.256-.001H55.76l4.313-4.008v-1.256h-4.908l3.482-3.317V35.36h-4.672l3.218-3.404V30.7h-3.318l1.782-3.668v-1.256h-3.536z"
     fill="snow"
     id="path42" />
  <path
     d="M24.49 24.533v1.256l1.782 3.668h-3.318v1.256l3.219 3.404h-4.672v1.256l3.482 3.317h-4.908v1.256l4.313 4.008h-5.955v1.256l4.373 4.276H8.129c.11 3.717.603 7.398 1.465 10.943h18.682V24.532h-.249zm26.528 0V60.43h18.681c.862-3.545 1.355-7.226 1.465-10.943H56.486l4.373-4.276v-1.256-.001h-5.955l4.313-4.008V38.69h-4.908l3.482-3.317v-1.256h-4.672l3.218-3.404v-1.256h-3.318l1.782-3.668v-1.256h-3.536z"
     fill="#610300"
     id="path44" />
  <g
     id="g1140">
    <path
       d="M34.803 13.392l2.896 2.136-.001.005"
       class="o"
       id="path46" />
    <path
       d="M40.894 13.386h-.009l-1.24-3.54-.005.017-1.227 3.518-.002.005-3.624-.008.018.013 2.895 2.141-1.058 3.558.023-.015 2.976-2.14.005-.004 3.007 2.03-.002-.006-1.106-3.46h.001l2.958-2.112.005-.004z"
       class="h"
       id="path48" />
    <path
       fill="#a07843"
       d="M36.641 19.305a.21.21 0 0 1-.124-.04c-.075-.053-.108-.148-.082-.236l1.014-3.414-2.792-2.064c-.075-.055-.106-.152-.077-.24s.111-.148.204-.148h0l3.472.008 1.185-3.396c.03-.086.111-.144.203-.144h0c.091 0 .172.058.203.144l1.19 3.396 3.47-.008h0c.093 0 .176.06.204.149s-.003.186-.079.24l-2.837 2.025 1.051 3.289c.014.028.021.06.021.093 0 .119-.096.215-.215.215a.21.21 0 0 1-.057-.008c-.023-.006-.045-.015-.066-.029l-2.882-1.946-2.882 2.073a.21.21 0 0 1-.125.04zm-1.202-5.711l2.387 1.765c.073.054.104.147.078.234l-.878 2.956 2.488-1.789c.073-.053.177-.058.251-.008l2.493 1.683-.919-2.876c-.028-.088.003-.184.078-.239l2.418-1.726-2.941.006h0c-.091 0-.18-.058-.211-.144l-1.037-2.96-1.031 2.955c-.03.086-.113.149-.205.149h0l-2.97-.006z"
       id="path50" />
    <path
       d="M39.645 9.846l-.005.017V14.9l1.254-1.513h-.009z"
       class="p"
       id="path52" />
    <g
       class="o"
       id="g58">
      <path
         d="M34.803 13.392l2.896 2.136-.001.005 1.941-.628v-.004z"
         id="path54" />
      <path
         d="M39.636 14.899l.003.001V9.863l-1.227 3.518z"
         id="path56" />
    </g>
    <path
       d="M38.41 13.386l-3.624-.008.018.013 4.833 1.507-1.224-1.518z"
       class="p"
       id="path60" />
    <path
       d="M44.502 13.382l.005-.004-3.614.008-1.251 1.51z"
       class="o"
       id="path62" />
    <path
       d="M39.639 14.899h0l1.905.594 2.958-2.112-4.859 1.514z"
       class="p"
       id="path64" />
    <path
       d="M41.544 15.494l-1.905-.594v.004l3.01 4.05-1.106-3.46z"
       class="o"
       id="path66" />
    <g
       class="p"
       id="g72">
      <path
         d="M39.639 16.935l.005-.004 3.007 2.03-.002-.006-3.01-4.05z"
         id="path68" />
      <path
         d="M39.63 14.907l-1.931.625-1.058 3.558.023-.015z"
         id="path70" />
    </g>
    <path
       d="M39.63 14.907l-2.966 4.168 2.976-2.14v-2.031z"
       class="o"
       id="path74" />
  </g>
  <g
     id="g1187">
    <path
       d="M9.593 60.429a31.541 41.332 0 0 0 13.374 22.534c5.152-2.724 10.853-4.246 16.614-4.257h.001a7.336 7.336 0 0 1 .008 0h.063c5.779.001 11.5 1.525 16.67 4.257a31.541 41.332 0 0 0 13.375-22.534z"
       fill="#2cc053"
       class="g q"
       id="path76" />
    <path
       d="M25.525 61.126c-1.45 0-2.228.358-2.834.672s-1.022.566-2.172.566c-1.032 0-1.602-.247-2.301-.533s-1.522-.607-2.804-.607c-1.263 0-1.905.353-2.974.621-.574.144-1.315.276-2.385.341l.278.949a13.37 13.37 0 0 0 2.341-.354c1.166-.293 1.656-.592 2.74-.592 1.131 0 1.747.252 2.44.535s1.469.605 2.666.605c1.312 0 2.023-.368 2.615-.674s1.086-.564 2.391-.564a5.4 5.4 0 0 1 1.691.226l1.807.551c1.624.41 4.386.809 10.623.809s8.999-.399 10.623-.809c.812-.205 1.331-.411 1.807-.551s.919-.226 1.691-.226c1.306 0 1.799.258 2.391.564s1.303.674 2.615.674c1.197 0 1.974-.322 2.666-.605s1.309-.535 2.44-.535c1.084 0 1.575.299 2.74.592.588.148 1.322.281 2.341.354l.278-.949c-1.07-.065-1.811-.197-2.385-.341-1.069-.268-1.711-.621-2.974-.621-1.283 0-2.105.321-2.804.607s-1.269.533-2.301.533c-1.15 0-1.566-.253-2.172-.566s-1.384-.672-2.834-.672c-.851 0-1.431.11-1.965.268s-1.011.348-1.769.539c-1.516.383-4.191.779-10.387.779s-8.871-.396-10.387-.779c-.758-.191-1.236-.382-1.769-.539s-1.114-.268-1.965-.268zm0 1.887c-1.45 0-2.228.358-2.834.672s-1.022.566-2.172.566c-1.032 0-1.602-.247-2.301-.533s-1.522-.607-2.804-.607c-1.263 0-1.905.353-2.974.621-.468.118-1.052.226-1.827.298l.314.937a12.57 12.57 0 0 0 1.747-.3c1.166-.293 1.656-.592 2.74-.592 1.131 0 1.747.252 2.44.535s1.469.605 2.666.605c1.312 0 2.023-.368 2.615-.674s1.086-.564 2.391-.564a5.4 5.4 0 0 1 1.691.226l1.807.551c1.624.41 4.386.809 10.623.809s8.999-.399 10.623-.809c.812-.205 1.331-.411 1.807-.551s.919-.226 1.691-.226c1.306 0 1.799.258 2.391.564s1.303.674 2.615.674c1.197 0 1.974-.322 2.666-.605s1.309-.535 2.44-.535c1.084 0 1.575.299 2.74.592a12.57 12.57 0 0 0 1.747.3l.314-.937c-.775-.072-1.359-.181-1.827-.298-1.069-.268-1.711-.621-2.974-.621-1.283 0-2.105.321-2.804.607s-1.269.533-2.301.533c-1.15 0-1.566-.253-2.172-.566s-1.384-.672-2.834-.672c-.851 0-1.431.11-1.965.268s-1.011.348-1.769.539c-1.516.383-4.191.779-10.387.779s-8.871-.396-10.387-.779c-.758-.191-1.236-.382-1.769-.539s-1.114-.268-1.965-.268z"
       fill="none"
       stroke-width=".165"
       class="i"
       id="path78" />
    <g
       stroke="#a9a9a9"
       class="h q r"
       id="g90">
      <path
         d="M24.073 67.221h31.145v1.533H24.073z"
         stroke-width=".282"
         class="g"
         id="path80" />
      <path
         d="M25.905 65.687h27.483v1.534H25.905z"
         class="g j"
         id="path82" />
      <path
         d="M27.736 64.154h23.82v1.534h-23.82z"
         stroke-width=".247"
         class="g"
         id="path84" />
      <path
         d="M29.567 62.62h20.158v1.533H29.567z"
         stroke-width=".233"
         class="g"
         id="path86" />
      <path
         d="M31.398 61.087h16.495v1.533H31.398z"
         stroke-width=".211"
         class="g"
         id="path88" />
    </g>
  </g>
  <g
     id="g1152">
    <g
       fill="snow"
       id="g98">
      <path
         d="M58.137 67.682c-1.941 1.251-4.138 2.299-6.518 3.109m11.025-1.807c-1.321 1.121-2.833 2.141-4.507 3.042m-14.159.45a38.98 38.98 0 0 1-4.332.241m-18.491-5.035c1.941 1.251 4.138 2.299 6.518 3.109m-11.025-1.807c1.321 1.121 2.833 2.141 4.507 3.042m14.159.45a38.98 38.98 0 0 0 4.332.241"
         id="path94" />
      <path
         d="M39.646 72.718l-.01-.977c1.342 0 2.682-.075 4.007-.223l.335.959m0 3.666l-.335-1.234c2.441-.24 4.82-.697 7.067-1.359l.908 1.124a41.41 41.41 0 0 1-7.64 1.469zm14.159-4.117l-1.397-.925c1.549-.834 2.947-1.778 4.169-2.814l1.735.697"
         id="path96" />
    </g>
    <path
       d="M50.711 69.958v3.592l.908 1.124v-3.883z"
       class="h"
       id="path100" />
    <g
       fill="snow"
       id="g106">
      <path
         d="M35.314 76.143l.335-1.234c-2.441-.24-4.82-.697-7.067-1.359l-.908 1.124a41.41 41.41 0 0 0 7.64 1.469zm-14.159-4.117l1.397-.925c-1.549-.834-2.947-1.778-4.169-2.814l-1.735.697"
         id="path102" />
      <path
         d="M27.674 70.791l.908-.833c-2.202-.749-4.234-1.718-6.03-2.876l-1.397.6v4.344l6.518 2.648zm11.972 1.927l.01-.977c-1.342 0-2.682-.075-4.007-.223l-.335.959"
         id="path104" />
    </g>
    <path
       d="M28.581 69.958v3.592l-.908 1.124v-3.883z"
       class="h"
       id="path108" />
    <path
       d="M51.618 70.791l-.908-.833c2.202-.749 4.234-1.718 6.03-2.876l1.397.6v4.344l-6.518 2.648z"
       fill="snow"
       id="path110" />
    <path
       d="M21.155 67.682v4.344c-1.674-.901-3.186-1.922-4.507-3.043v7.184a31.541 41.332 0 0 0 6.32 6.795c5.152-2.724 10.853-4.246 16.614-4.257h.001a7.336 7.336 0 0 1 .008 0h.063c5.779.001 11.5 1.525 16.67 4.257a31.541 41.332 0 0 0 6.322-6.798v-7.182c-1.321 1.121-2.833 2.142-4.507 3.043v-4.344c-1.941 1.251-4.138 2.299-6.518 3.109v3.883a41.41 41.41 0 0 1-7.64 1.469v-3.667a38.98 38.98 0 0 1-4.332.241 38.99 38.99 0 0 1-4.332-.241v3.667a41.41 41.41 0 0 1-7.64-1.469V70.79c-2.381-.81-4.577-1.858-6.518-3.109z"
       fill="#8b0000"
       id="path112" />
  </g>
  <g
     transform="matrix(.972585 0 0 .972585 -63.476532 -109.89251)"
     id="g166">
    <g
       stroke="#a07843"
       id="g146">
      <g
         class="p"
         id="g118">
        <path
           d="M77.414 191.718c7.765.092 8.18 5.042 11.189 5.067-7.271 3.342-7.301-.36-11.189-5.067z"
           class="s"
           id="path114" />
        <path
           d="M73.449 186.052c7.432-.056 5.725 4.722 9.534 5.203-7.078 1.037-7.365-2.58-9.534-5.203z"
           stroke-width=".325"
           id="path116" />
      </g>
      <path
         d="M111.401 210.534c-4.726-5.932-15.698-8.131-22.991-13.949-21.094-16.827-14.382-43.355-11.916-57.687"
         fill="none"
         stroke-width=".873"
         id="path120" />
      <g
         class="p"
         id="g144">
        <path
           d="M70.841 178.979c7.547 1.71 4.616 5.941 8.356 7.312-7.435-.673-6.817-4.251-8.356-7.312z"
           stroke-width=".332"
           id="path122" />
        <path
           d="M69.256 171.213c7.009 3.08 3.491 6.943 6.879 9.011-7.07-1.99-5.891-5.58-6.879-9.011z"
           stroke-width=".337"
           id="path124" />
        <path
           d="M68.708 163.139c6.732 4.208 2.612 7.569 5.787 10.189-6.943-3.114-5.248-6.563-5.787-10.189z"
           stroke-width=".346"
           id="path126" />
        <path
           d="M69.173 155.096c6.322 5.147 1.667 7.885 4.565 10.943-6.682-4.093-4.494-7.269-4.565-10.943zm1.819-8.318c5.318 6.179.254 8.056 2.568 11.575-5.858-5.205-3.145-7.946-2.568-11.575zm1.89-8.511c4.803 6.587-.395 8.05 1.629 11.744-5.42-5.659-2.496-8.174-1.629-11.744z"
           class="t"
           id="path128" />
        <path
           d="M84.605 185.956c-.416 7.754 4.497 8.493 4.325 11.496 2.142-7.037-.549-7.309-4.325-11.496zm-3.4-6.674c-2.258 7.43 2.336 9.321 1.451 12.197 3.762-6.321 1.214-7.228-1.451-12.197z"
           class="s"
           id="path130" />
        <path
           d="M78.21 173.205c-2.848 6.85 1.03 9.221-.082 11.87 4.062-5.604 1.896-6.783.082-11.87z"
           stroke-width=".32"
           id="path132" />
        <path
           d="M77.046 166.319c-3.83 5.861-.401 8.585-1.893 10.851 4.828-4.548 2.89-5.936 1.893-10.851z"
           stroke-width=".307"
           id="path134" />
        <path
           d="M77.934 160.159c-5.125 4.413-2.356 7.529-4.348 9.232 5.812-3.044 4.212-4.671 4.348-9.232z"
           class="u"
           id="path136" />
        <path
           d="M78.488 152.999c-5.557 4.102-3.137 7.64-5.296 9.222 6.094-2.601 4.677-4.464 5.296-9.222z"
           stroke-width=".302"
           id="path138" />
        <path
           d="M79.23 145.826c-5.571 4.085-3.17 7.73-5.334 9.305 6.1-2.548 4.694-4.469 5.334-9.305z"
           stroke-width=".305"
           id="path140" />
        <path
           d="M80.355 138.512c-5.584 3.816-3.177 7.221-5.346 8.692 6.114-2.38 4.705-4.175 5.346-8.692z"
           class="u"
           id="path142" />
      </g>
    </g>
    <path
       d="M80.16 193.188c3.068-.008 3.764 1.439 4.882 2.627-1.864-.797-3.411-1.699-4.882-2.627zm-5.414-6.587c3.068.033 3.744 1.49 4.846 2.693-1.853-.822-3.388-1.745-4.846-2.693zm-2.53-6.394c2.949.846 3.214 2.43 3.958 3.882-1.568-1.284-2.803-2.582-3.958-3.882zm-2.065-7.671c2.817 1.216 2.878 2.821 3.43 4.356-1.392-1.474-2.451-2.918-3.43-4.356zm-.382-7.627c2.592 1.642 2.401 3.236 2.706 4.839-1.144-1.674-1.964-3.266-2.706-4.839zm.245-8.125c2.28 2.053 1.825 3.593 1.857 5.224-.847-1.841-1.389-3.549-1.857-5.224zm1.49-8.002c1.911 2.401 1.207 3.844.97 5.458-.532-1.956-.785-3.729-.97-5.458zm1.61-8.682c1.751 2.519.956 3.914.615 5.51-.404-1.986-.542-3.772-.615-5.51z"
       class="g o"
       id="path148" />
    <g
       transform="rotate(10.314 80.034 144.504)"
       id="g154">
      <path
         d="M78.56 131.708c2.139 7.867-3.239 7.38-2.665 11.553-3.047-7.22.582-8.526 2.665-11.553z"
         stroke="#a07843"
         class="p t"
         id="path150" />
      <use
         xlink:href="#D"
         class="g o"
         id="use152" />
    </g>
    <g
       class="o"
       id="g164">
      <use
         xlink:href="#D"
         x="1.14"
         y="6.097"
         class="g"
         id="use156" />
      <use
         xlink:href="#D"
         x="-.099"
         y="14.324"
         class="g"
         id="use158" />
      <use
         xlink:href="#D"
         x="-.595"
         y="21.263"
         class="g"
         id="use160" />
      <path
         d="M77.469 162.169c.486 3.03-.835 3.942-1.834 5.232.497-1.965 1.147-3.634 1.834-5.232zm-.578 6.756c1.323 2.768.313 4.017-.28 5.537-.079-2.025.072-3.81.28-5.537zm1.831 7.1c1.695 2.558.868 3.935.492 5.522-.36-1.995-.458-3.783-.492-5.522zm3.389 6.215c1.965 2.356 1.295 3.816 1.096 5.435-.577-1.943-.871-3.71-1.096-5.435zm4.277 6.527c2.527 1.74 2.275 3.326 2.519 4.939-1.079-1.716-1.838-3.339-2.519-4.939z"
         class="g"
         id="path162" />
    </g>
  </g>
  <g
     transform="matrix(.978407 0 0 .978407 -62.301839 -110.63752)"
     id="g276">
    <g
       transform="matrix(.405468 -.563428 .563428 .405468 -79.503717 212.08221)"
       id="g178">
      <g
         class="j"
         id="g172">
        <use
           xlink:href="#E"
           class="k l"
           id="use168" />
        <use
           xlink:href="#F"
           class="i m"
           id="use170" />
      </g>
      <use
         xlink:href="#G"
         class="h"
         id="use174" />
      <use
         xlink:href="#H"
         class="n"
         id="use176" />
    </g>
    <path
       d="M99.886 209.791c4.681-5.876 15.55-8.054 22.775-13.818"
       fill="none"
       stroke-width=".865"
       class="i"
       id="path180" />
    <g
       transform="matrix(.268969 -.639931 .639931 .268969 -62.243583 251.25109)"
       id="g192">
      <g
         class="j"
         id="g186">
        <use
           xlink:href="#E"
           class="k l"
           id="use182" />
        <use
           xlink:href="#F"
           class="i m"
           id="use184" />
      </g>
      <use
         xlink:href="#G"
         class="h"
         id="use188" />
      <use
         xlink:href="#H"
         class="n"
         id="use190" />
    </g>
    <g
       transform="matrix(.376917 -.582915 .582915 .376917 -75.816488 222.60189)"
       id="g204">
      <g
         class="j"
         id="g198">
        <use
           xlink:href="#E"
           class="k l"
           id="use194" />
        <use
           xlink:href="#F"
           class="i m"
           id="use196" />
      </g>
      <use
         xlink:href="#G"
         class="h"
         id="use200" />
      <use
         xlink:href="#H"
         class="n"
         id="use202" />
    </g>
    <g
       transform="matrix(.496615 -.485005 .485005 .496615 -85.736813 181.77277)"
       id="g216">
      <g
         class="j"
         id="g210">
        <use
           xlink:href="#E"
           class="k l"
           id="use206" />
        <use
           xlink:href="#F"
           class="i m"
           id="use208" />
      </g>
      <use
         xlink:href="#G"
         class="h"
         id="use212" />
      <use
         xlink:href="#H"
         class="n"
         id="use214" />
    </g>
    <g
       transform="matrix(.664019 -.375153 .375153 .664019 -107.46801 128.17488)"
       id="g228">
      <g
         class="j"
         id="g222">
        <use
           xlink:href="#E"
           class="k l"
           id="use218" />
        <use
           xlink:href="#F"
           class="i m"
           id="use220" />
      </g>
      <use
         xlink:href="#G"
         class="h"
         id="use224" />
      <use
         xlink:href="#H"
         class="n"
         id="use226" />
    </g>
    <g
       transform="matrix(.765566 -.432525 .432525 .765566 -145.72789 132.16389)"
       id="g240">
      <g
         class="j"
         id="g234">
        <use
           xlink:href="#E"
           class="k l"
           id="use230" />
        <use
           xlink:href="#F"
           class="i m"
           id="use232" />
      </g>
      <use
         xlink:href="#G"
         class="h"
         id="use236" />
      <use
         xlink:href="#H"
         class="n"
         id="use238" />
    </g>
    <g
       transform="matrix(.831396 -.28627 .28627 .831396 -136.01191 89.89417)"
       id="g252">
      <g
         class="j"
         id="g246">
        <use
           xlink:href="#E"
           class="k l"
           id="use242" />
        <use
           xlink:href="#F"
           class="i m"
           id="use244" />
      </g>
      <use
         xlink:href="#G"
         class="h"
         id="use248" />
      <use
         xlink:href="#H"
         class="n"
         id="use250" />
    </g>
    <g
       transform="matrix(.878083 .046259 -.046259 .878083 -88.720242 3.113795)"
       id="g264">
      <g
         class="j"
         id="g258">
        <use
           xlink:href="#E"
           class="k l"
           id="use254" />
        <use
           xlink:href="#F"
           class="i m"
           id="use256" />
      </g>
      <use
         xlink:href="#G"
         class="h"
         id="use260" />
      <use
         xlink:href="#H"
         class="n"
         id="use262" />
    </g>
    <g
       stroke-width=".281"
       id="g270">
      <path
         d="M127.905 193.912c-.909-.24-1.848-.341-2.725.076-1.064.455-2.287.322-2.789-.867-1.242-.319-.946-2.058-1.664-2.97-.436-.759-1.077-1.594-1.993-1.621-1.181-1.203 1.248-1.59 1.65-2.515.519-.847 1.551-.96 2.416-.799 1.046.126 1.805-.944 2.861-.648 1.267.197 2.606 1.008 2.883 2.414.331.812 1.202 1.414 1.013 2.42-.047 1.241.259 2.59-.326 3.717-.172.645-.71 1.966-1.327.793z"
         class="k l"
         id="path266" />
      <path
         d="M119.39 188.752c2.024 3.197-2.916 4.837.435 8.233 3.327 1.895 4.759-3.482 7.573-3.377-1.183-.362-1.387-1.676-3.768-.873.276-.701.517-1.512.507-3.111-1.077.591-1.978 1.256-2.573 2.049-.319-1.964-1.302-2.308-2.174-2.921z"
         class="i m"
         id="path268" />
    </g>
    <path
       d="M126.166 185.868c-1.168-.349-2.265.257-3.283.71-.954-.159-1.878.492-1.557 1.598-.025 1.585 1.615.937 2.424.487.908-.644 1.864.098 1.526 1.189-.524 1.097.432 1.519 1.321 1.446.393.575 1.25.846 1.307-.147-.145-.847.58-1.932-.238-2.572-.849-.412-.291-1.664-1.031-2.21-.112-.202-.238-.433-.469-.502z"
       class="h"
       id="path272" />
    <path
       d="M120.489 190.572l.82 2.28c.767-1.066 1.303-1.286 1.947-1.905-.028.859.064 1.769-.282 2.495 1.196-.439 1.937-.021 2.818.134-1.487.686-3.035 1.838-4.33 1.046-1.978-1.227-.706-2.696-.974-4.051z"
       class="n"
       id="path274" />
  </g>
  <g
     transform="matrix(.958443 0 0 .958443 -60.990535 -105.13449)"
     id="g292">
    <g
       stroke="silver"
       stroke-width=".423"
       class="r"
       id="g288">
      <path
         d="M92.956 203.662c-.695 2.371-5.238 4.052-6.486 6.314l-.21-5.047-4.661.245c2.515-1.872 4.453-4.396 8.539-5.431z"
         fill="#f5f5f5"
         id="path278" />
      <path
         d="M83.476 199.49l3.676 6.373c1.288-1.214 2.215-1.583 5.804-2.201l-3.326-4.624z"
         fill="#d1d1d1"
         id="path280" />
      <path
         d="M117.044 203.662c.695 2.371 5.238 4.052 6.486 6.314l.21-5.047 4.661.245c-2.515-1.872-4.453-4.396-8.538-5.431z"
         fill="#f5f5f5"
         id="path282" />
      <path
         d="M126.524 199.49l-3.676 6.373c-1.288-1.214-2.215-1.583-5.804-2.201l3.326-4.624z"
         fill="#d1d1d1"
         id="path284" />
      <path
         d="M104.936 192.197c-7.639.014-15.172 2.684-21.461 7.292l3.676 6.374a32.018 37.272 0 0 1 17.835-6.329 32.018 37.272 0 0 1 .014 0 32.018 37.272 0 0 1 17.848 6.328l3.676-6.373c-6.305-4.618-13.86-7.291-21.518-7.293a32.55 32.55 0 0 0-.062 0 7.336 7.336 0 0 0-.008 0z"
         class="g h q"
         id="path286" />
    </g>
    <path
       d="M88.643 202.278l-.423-.719.004-.367 1.024.73.528-.311-1.492-1.049-.016-1.441-.528.311.027.673q.009.252.021.433.012.182.039.342l-.007.004-.656-1.113-.468.276 1.477 2.508zm1.709-.974l-.215-.72.564-.296.47.586.516-.27-1.936-2.271-.65.341.736 2.9zm-.577-1.945q-.03-.107-.112-.314l-.027-.069q-.031-.067-.073-.181l.007-.004q.07.099.107.163l.041.062q.123.185.194.27l.514.664-.412.216zm2.488.51l-.366-.801.191-.087q.219-.1.331-.04.114.054.218.28.06.131.073.244.017.112-.057.192-.034.037-.091.071-.055.029-.193.092zm-.543-1.19l-.311-.681.229-.105q.16-.069.246-.023.089.045.161.204.095.208.077.31-.018.081-.092.136-.075.051-.22.117zm1.098 1.406q.265-.121.365-.303.104-.184.067-.47-.026-.15-.113-.341-.122-.268-.287-.385-.164-.117-.378-.053l-.003-.007q.153-.151.156-.323.001-.175-.091-.377-.071-.155-.149-.252-.076-.102-.199-.165-.15-.077-.3-.051-.152.022-.35.113l-.798.364 1.208 2.648zm1.995-1.823q.046.12.068.211.026.09.017.176-.006.081-.062.152-.052.07-.172.115-.123.047-.216.032-.089-.016-.152-.071-.06-.06-.104-.143-.044-.083-.09-.203l-.706-1.853-.508.194.723 1.896q.178.468.447.606.272.137.758-.048.482-.184.591-.466.108-.282-.07-.75l-.723-1.896-.508.194zm1.133-2.028l.238-.072q.238-.072.348-.029.114.042.183.269.072.238.006.367-.067.126-.253.182l-.278.085zm.722 2.376l-.354-1.166.349-.106q.178-.054.312-.135.136-.086.22-.209.105-.149.111-.342.009-.197-.052-.398-.047-.156-.123-.283-.076-.131-.188-.219-.109-.093-.255-.117-.147-.029-.325.026l-1.062.323.846 2.785zm1.756-.494l-.026-.751.62-.143.306.686.567-.131-1.297-2.688-.715.165-.023 2.992zm-.065-2.028q-.002-.111-.029-.332l-.009-.074q-.013-.073-.025-.193l.008-.002q.042.114.063.185l.024.07q.072.21.119.311l.329.772-.454.105zm1.03-.738l.628-.1.392 2.452.536-.086-.392-2.452.625-.1-.067-.422-1.79.286zm4.014 1.998l-.037-.425-.982.087-.079-.893.905-.08-.037-.425-.905.08-.065-.731.982-.087-.037-.425-1.523.134.256 2.899zm1.714-2.372q.002.33.032.819.021.357.059.826h-.008q-.099-.349-.194-.62-.091-.275-.201-.534l-.429-1.057-.563.003.016 2.91.543-.003-.003-.547q-.001-.155-.01-.357-.005-.206-.022-.458-.013-.194-.029-.38-.013-.19-.034-.45h.008q.103.356.194.631.095.271.201.523l.429 1.034.567-.003-.016-2.91-.543.003zm1.921 1.491q-.003.031-.008.073-.009.05-.012.077-.02.177-.017.33.007.153.038.219.087.17.226.255.139.086.297.103.235.026.398.005.162-.017.283-.121.112-.097.156-.244.048-.151.076-.402l.232-2.11-.54-.06-.245 2.222q-.017.154-.06.228-.039.07-.17.055-.093-.01-.126-.065-.033-.058-.027-.147l.04-.359zm2.05-.116q-.064.339-.079.57-.015.226.045.415.059.189.232.32.173.131.489.19.317.059.525 0 .209-.06.332-.214.124-.155.192-.371.069-.22.132-.56l.076-.408q.051-.334.059-.549.009-.219-.051-.4-.056-.184-.226-.311-.17-.126-.479-.184-.309-.058-.513-.001-.204.057-.327.207-.118.148-.189.356-.07.204-.143.534zm.648-.424q.03-.16.064-.276.034-.12.091-.212.057-.096.144-.139.091-.046.221-.022.134.025.2.112.067.084.081.201.018.114.004.23-.01.117-.038.265l-.137.732q-.027.145-.058.246-.027.102-.08.194-.052.089-.147.134-.091.046-.225.021-.13-.024-.199-.096-.065-.075-.086-.174-.02-.102-.013-.204.007-.101.029-.22zm2.244 1.395q.263-.926.43-1.681l.019.005-.176 2.705.317.09 1.285-2.39.007.002q-.256.73-.519 1.656l-.25.881.523.149.796-2.799-.829-.236-.649 1.219q-.061.116-.119.249-.054.134-.147.374l-.007-.002q.066-.373.087-.673l.089-1.379-.832-.237-.796 2.799.523.149zm2.77 1.385l.308-.825.196.073q.225.084.263.206.042.119-.044.352-.05.135-.121.224-.067.091-.176.096-.05.002-.115-.014-.06-.018-.201-.071zm.457-1.225l.261-.702.236.088q.162.065.19.158.031.094-.03.258-.08.215-.164.274-.07.044-.161.031-.089-.017-.238-.072zm-.216 1.77q.273.102.472.043.203-.057.38-.285.088-.125.161-.321.103-.276.069-.475-.034-.199-.23-.305l.003-.007q.215.001.338-.118.125-.123.202-.331.06-.16.072-.284.018-.126-.024-.257-.052-.16-.177-.248-.123-.091-.327-.167l-.822-.306-1.016 2.727zm1.451.581l.429-.617.582.257-.166.733.533.235.57-2.929-.671-.296-1.809 2.383zm1.161-1.664q.065-.09.176-.283l.037-.064q.033-.066.096-.17l.007.003q-.034.116-.06.185l-.023.071q-.068.212-.09.321l-.198.816-.426-.188zm2.702.904q-.149.294-.346.743-.144.327-.325.762l-.007-.004q.071-.355.111-.64.045-.286.065-.567l.101-1.136-.502-.254-1.315 2.597.485.245.247-.488q.07-.138.154-.322.089-.185.19-.417.077-.178.148-.352.075-.175.176-.416l.007.004q-.071.364-.116.65-.04.284-.06.557l-.091 1.115.505.256 1.315-2.597-.485-.245zm.476 1.453q-.171.3-.26.513-.088.209-.093.407-.005.198.116.378.121.18.401.339.154.074.313.062.164-.014.332-.16l.007.004-.165.29.354.201.772-1.36-.786-.447-.211.371.327.186q-.184.324-.363.45-.179.126-.364.021-.115-.065-.157-.156-.037-.092-.025-.192.014-.104.054-.197.04-.094.099-.198l.399-.702q.08-.142.15-.241.072-.102.155-.171.086-.072.182-.084.102-.014.216.051.113.069.159.144.05.077.047.161-.001.08-.035.163-.032.08-.096.2l.472.268q.012-.02.034-.061.091-.167.116-.26.099-.355-.028-.578-.125-.227-.454-.419-.273-.155-.485-.168-.211-.013-.377.089-.16.101-.294.275-.132.17-.309.458z"
       id="path290" />
  </g>
  <g
     id="g1177">
    <path
       d="M39.646 47.383L29.131 52.99v7.438h3.652v.658h13.718v-.658h3.66V52.99z"
       fill="#005b31"
       class="g"
       id="path92" />
    <path
       d="M39.645 46.794L29.13 52.401h.001v.59l10.515-5.607-.001-.589zm.001.589v.001l10.515 5.607.001-.59-10.515-5.607-.001.589zm10.516 5.018v.59h-.001-2.259-1.401-13.718-1.393-2.259 0-.001v-.59h-.856-9.226v.59h2.856v7.438h1.263v-7.438h5.107l.001 7.438h.856v-6.848h2.259v7.506h1.393v-7.506h13.718v7.506h1.401v-7.506h2.26v6.848h.856v-6.848-.59h5.107v7.438h1.266v-7.438h2.854v-.59h-9.227-.856z"
       class="h q"
       id="path294" />
  </g>
</svg>
